<?xml version="1.0" encoding="UTF-8" standalone="no"?>
<svg width="144px" height="392px" viewBox="0 0 144 392" version="1.1" xmlns="http://www.w3.org/2000/svg" xmlns:xlink="http://www.w3.org/1999/xlink">
    <!-- Generator: Sketch 47.1 (45422) - http://www.bohemiancoding.com/sketch -->
    <title>cloud-2</title>
    <desc>Created with Sketch.</desc>
    <defs></defs>
    <g id="Page-1" stroke="none" stroke-width="1" fill="none" fill-rule="evenodd">
        <g id="cloud-2" transform="translate(1.000000, 1.000000)" stroke="#B6B6B6">
            <circle id="Oval" cx="84" cy="12" r="12"></circle>
            <circle id="Oval" cx="84" cy="259" r="12"></circle>
            <g id="Group-3" transform="translate(19.000000, 24.000000)">
                <g id="Group" transform="translate(0.000000, 19.000000)">
                    <path d="M0,12 C2.74800456,9.66003304 4.74551674,6.48847636 5,0" id="Path-2"></path>
                    <path d="M5,12 C7.74800456,9.66003304 9.74551674,6.48847636 10,0" id="Path-2" transform="translate(7.500000, 6.000000) scale(-1, 1) translate(-7.500000, -6.000000) "></path>
                    <path d="M0,24 C2.74800456,21.660033 4.74551674,18.4884764 5,12" id="Path-2" transform="translate(2.500000, 18.000000) scale(1, -1) translate(-2.500000, -18.000000) "></path>
                    <path d="M5,24 C7.74800456,21.660033 9.74551674,18.4884764 10,12" id="Path-2" transform="translate(7.500000, 18.000000) scale(-1, -1) translate(-7.500000, -18.000000) "></path>
                </g>
                <g id="Group" transform="translate(17.000000, 49.000000)">
                    <path d="M0,18 C4.94640821,14.4900496 8.54193013,9.73271454 9,0" id="Path-2"></path>
                    <path d="M9,18 C13.9464082,14.4900496 17.5419301,9.73271454 18,0" id="Path-2" transform="translate(13.500000, 9.000000) scale(-1, 1) translate(-13.500000, -9.000000) "></path>
                    <path d="M0,36 C4.94640821,32.4900496 8.54193013,27.7327145 9,18" id="Path-2" transform="translate(4.500000, 27.000000) scale(1, -1) translate(-4.500000, -27.000000) "></path>
                    <path d="M9,36 C13.9464082,32.4900496 17.5419301,27.7327145 18,18" id="Path-2" transform="translate(13.500000, 27.000000) scale(-1, -1) translate(-13.500000, -27.000000) "></path>
                </g>
                <g id="Group" transform="translate(32.000000, 0.000000)">
                    <path d="M0,16 C3.29760547,12.880044 5.69462009,8.65130182 6,0" id="Path-2"></path>
                    <path d="M6,16 C9.29760547,12.880044 11.6946201,8.65130182 12,0" id="Path-2" transform="translate(9.000000, 8.000000) scale(-1, 1) translate(-9.000000, -8.000000) "></path>
                    <path d="M0,32 C3.29760547,28.880044 5.69462009,24.6513018 6,16" id="Path-2" transform="translate(3.000000, 24.000000) scale(1, -1) translate(-3.000000, -24.000000) "></path>
                    <path d="M6,32 C9.29760547,28.880044 11.6946201,24.6513018 12,16" id="Path-2" transform="translate(9.000000, 24.000000) scale(-1, -1) translate(-9.000000, -24.000000) "></path>
                </g>
            </g>
            <g id="Group-2" transform="translate(108.000000, 55.000000)">
                <g id="Group" transform="translate(12.000000, 78.000000) scale(-1, 1) translate(-12.000000, -78.000000) translate(7.000000, 66.000000)">
                    <path d="M0,12 C2.74800456,9.66003304 4.74551674,6.48847636 5,0" id="Path-2"></path>
                    <path d="M5,12 C7.74800456,9.66003304 9.74551674,6.48847636 10,0" id="Path-2" transform="translate(7.500000, 6.000000) scale(-1, 1) translate(-7.500000, -6.000000) "></path>
                    <path d="M0,24 C2.74800456,21.660033 4.74551674,18.4884764 5,12" id="Path-2" transform="translate(2.500000, 18.000000) scale(1, -1) translate(-2.500000, -18.000000) "></path>
                    <path d="M5,24 C7.74800456,21.660033 9.74551674,18.4884764 10,12" id="Path-2" transform="translate(7.500000, 18.000000) scale(-1, -1) translate(-7.500000, -18.000000) "></path>
                </g>
                <g id="Group" transform="translate(7.000000, 13.000000) scale(-1, 1) translate(-7.000000, -13.000000) ">
                    <path d="M0,13 C3.84720639,10.4650358 6.64372344,7.02918273 7,0" id="Path-2"></path>
                    <path d="M7,13 C10.8472064,10.4650358 13.6437234,7.02918273 14,0" id="Path-2" transform="translate(10.500000, 6.500000) scale(-1, 1) translate(-10.500000, -6.500000) "></path>
                    <path d="M0,26 C3.84720639,23.4650358 6.64372344,20.0291827 7,13" id="Path-2" transform="translate(3.500000, 19.500000) scale(1, -1) translate(-3.500000, -19.500000) "></path>
                    <path d="M7,26 C10.8472064,23.4650358 13.6437234,20.0291827 14,13" id="Path-2" transform="translate(10.500000, 19.500000) scale(-1, -1) translate(-10.500000, -19.500000) "></path>
                </g>
                <g id="Group" transform="translate(29.000000, 49.000000) scale(-1, 1) translate(-29.000000, -49.000000) translate(23.000000, 35.000000)">
                    <path d="M0,14 C3.29760547,11.2700385 5.69462009,7.56988909 6,0" id="Path-2"></path>
                    <path d="M6,14 C9.29760547,11.2700385 11.6946201,7.56988909 12,0" id="Path-2" transform="translate(9.000000, 7.000000) scale(-1, 1) translate(-9.000000, -7.000000) "></path>
                    <path d="M0,28 C3.29760547,25.2700385 5.69462009,21.5698891 6,14" id="Path-2" transform="translate(3.000000, 21.000000) scale(1, -1) translate(-3.000000, -21.000000) "></path>
                    <path d="M6,28 C9.29760547,25.2700385 11.6946201,21.5698891 12,14" id="Path-2" transform="translate(9.000000, 21.000000) scale(-1, -1) translate(-9.000000, -21.000000) "></path>
                </g>
            </g>
            <path d="M84,271.5 L84,390.179219" id="Path"></path>
            <path d="M84,24.5 L84,247.5" id="Path"></path>
            <g id="Group-4" transform="translate(0.000000, 167.000000)">
                <path d="M0.0782364868,0 C0.0782364868,17.5948775 -1.44745188,46.2636496 8.97602571,66.26737 C19.3995033,86.2710904 34.3165275,91.6669109 56.2382401,92" id="Path-3"></path>
                <polygon id="Triangle" transform="translate(64.000000, 92.000000) rotate(90.000000) translate(-64.000000, -92.000000) " points="64 84 76 100 52 100"></polygon>
            </g>
        </g>
    </g>
</svg>