<?xml version="1.0" encoding="UTF-8" standalone="no"?>
<svg width="151px" height="392px" viewBox="0 0 151 392" version="1.1" xmlns="http://www.w3.org/2000/svg" xmlns:xlink="http://www.w3.org/1999/xlink">
    <!-- Generator: Sketch 47.1 (45422) - http://www.bohemiancoding.com/sketch -->
    <title>cloud-1</title>
    <desc>Created with Sketch.</desc>
    <defs></defs>
    <g id="Page-1" stroke="none" stroke-width="1" fill="none" fill-rule="evenodd">
        <g id="cloud-1" transform="translate(1.000000, 1.000000)" stroke="#B6B6B6">
            <path d="M65,222.5 L65,390.179219" id="Path"></path>
            <path d="M65,24 L65,131.529066" id="Path"></path>
            <circle id="Oval" cx="65" cy="12" r="12"></circle>
            <g id="Group-3" transform="translate(0.000000, 24.000000)">
                <g id="Group" transform="translate(0.000000, 19.000000)">
                    <path d="M0,12 C2.74800456,9.66003304 4.74551674,6.48847636 5,0" id="Path-2"></path>
                    <path d="M5,12 C7.74800456,9.66003304 9.74551674,6.48847636 10,0" id="Path-2" transform="translate(7.500000, 6.000000) scale(-1, 1) translate(-7.500000, -6.000000) "></path>
                    <path d="M0,24 C2.74800456,21.660033 4.74551674,18.4884764 5,12" id="Path-2" transform="translate(2.500000, 18.000000) scale(1, -1) translate(-2.500000, -18.000000) "></path>
                    <path d="M5,24 C7.74800456,21.660033 9.74551674,18.4884764 10,12" id="Path-2" transform="translate(7.500000, 18.000000) scale(-1, -1) translate(-7.500000, -18.000000) "></path>
                </g>
                <g id="Group" transform="translate(17.000000, 49.000000)">
                    <path d="M0,18 C4.94640821,14.4900496 8.54193013,9.73271454 9,0" id="Path-2"></path>
                    <path d="M9,18 C13.9464082,14.4900496 17.5419301,9.73271454 18,0" id="Path-2" transform="translate(13.500000, 9.000000) scale(-1, 1) translate(-13.500000, -9.000000) "></path>
                    <path d="M0,36 C4.94640821,32.4900496 8.54193013,27.7327145 9,18" id="Path-2" transform="translate(4.500000, 27.000000) scale(1, -1) translate(-4.500000, -27.000000) "></path>
                    <path d="M9,36 C13.9464082,32.4900496 17.5419301,27.7327145 18,18" id="Path-2" transform="translate(13.500000, 27.000000) scale(-1, -1) translate(-13.500000, -27.000000) "></path>
                </g>
                <g id="Group" transform="translate(32.000000, 0.000000)">
                    <path d="M0,16 C3.29760547,12.880044 5.69462009,8.65130182 6,0" id="Path-2"></path>
                    <path d="M6,16 C9.29760547,12.880044 11.6946201,8.65130182 12,0" id="Path-2" transform="translate(9.000000, 8.000000) scale(-1, 1) translate(-9.000000, -8.000000) "></path>
                    <path d="M0,32 C3.29760547,28.880044 5.69462009,24.6513018 6,16" id="Path-2" transform="translate(3.000000, 24.000000) scale(1, -1) translate(-3.000000, -24.000000) "></path>
                    <path d="M6,32 C9.29760547,28.880044 11.6946201,24.6513018 12,16" id="Path-2" transform="translate(9.000000, 24.000000) scale(-1, -1) translate(-9.000000, -24.000000) "></path>
                </g>
            </g>
            <g id="Group-2" transform="translate(89.000000, 55.000000)">
                <g id="Group" transform="translate(12.000000, 78.000000) scale(-1, 1) translate(-12.000000, -78.000000) translate(7.000000, 66.000000)">
                    <path d="M0,12 C2.74800456,9.66003304 4.74551674,6.48847636 5,0" id="Path-2"></path>
                    <path d="M5,12 C7.74800456,9.66003304 9.74551674,6.48847636 10,0" id="Path-2" transform="translate(7.500000, 6.000000) scale(-1, 1) translate(-7.500000, -6.000000) "></path>
                    <path d="M0,24 C2.74800456,21.660033 4.74551674,18.4884764 5,12" id="Path-2" transform="translate(2.500000, 18.000000) scale(1, -1) translate(-2.500000, -18.000000) "></path>
                    <path d="M5,24 C7.74800456,21.660033 9.74551674,18.4884764 10,12" id="Path-2" transform="translate(7.500000, 18.000000) scale(-1, -1) translate(-7.500000, -18.000000) "></path>
                </g>
                <g id="Group" transform="translate(7.000000, 13.000000) scale(-1, 1) translate(-7.000000, -13.000000) ">
                    <path d="M0,13 C3.84720639,10.4650358 6.64372344,7.02918273 7,0" id="Path-2"></path>
                    <path d="M7,13 C10.8472064,10.4650358 13.6437234,7.02918273 14,0" id="Path-2" transform="translate(10.500000, 6.500000) scale(-1, 1) translate(-10.500000, -6.500000) "></path>
                    <path d="M0,26 C3.84720639,23.4650358 6.64372344,20.0291827 7,13" id="Path-2" transform="translate(3.500000, 19.500000) scale(1, -1) translate(-3.500000, -19.500000) "></path>
                    <path d="M7,26 C10.8472064,23.4650358 13.6437234,20.0291827 14,13" id="Path-2" transform="translate(10.500000, 19.500000) scale(-1, -1) translate(-10.500000, -19.500000) "></path>
                </g>
                <g id="Group" transform="translate(29.000000, 49.000000) scale(-1, 1) translate(-29.000000, -49.000000) translate(23.000000, 35.000000)">
                    <path d="M0,14 C3.29760547,11.2700385 5.69462009,7.56988909 6,0" id="Path-2"></path>
                    <path d="M6,14 C9.29760547,11.2700385 11.6946201,7.56988909 12,0" id="Path-2" transform="translate(9.000000, 7.000000) scale(-1, 1) translate(-9.000000, -7.000000) "></path>
                    <path d="M0,28 C3.29760547,25.2700385 5.69462009,21.5698891 6,14" id="Path-2" transform="translate(3.000000, 21.000000) scale(1, -1) translate(-3.000000, -21.000000) "></path>
                    <path d="M6,28 C9.29760547,25.2700385 11.6946201,21.5698891 12,14" id="Path-2" transform="translate(9.000000, 21.000000) scale(-1, -1) translate(-9.000000, -21.000000) "></path>
                </g>
            </g>
            <path d="M73.5,152.5 L73.5,152.430416 L73.8850548,152.33946 C76.5702069,151.705181 78.5,149.297061 78.5,146.5 C78.5,143.648589 76.4953718,141.207107 73.7404138,140.628267 L73.4074773,140.558314 L73.3503283,140.222943 C72.4969085,135.214757 68.137241,131.5 63,131.5 C62.5692013,131.5 62.1417301,131.525917 61.719098,131.577293 L61.4232663,131.613255 L61.2508916,131.370157 C59.0940412,128.32838 55.6924977,126.5 52,126.5 C50.084749,126.5 48.2379895,126.988695 46.5862258,127.910189 L46.1898233,128.131336 L45.9314957,127.758097 C43.2393433,123.868393 38.8197835,121.5 34,121.5 C27.4313842,121.5 21.7330135,125.905801 20.017278,132.147309 L19.9103428,132.536318 L19.5075202,132.514014 C19.3389761,132.504682 19.1697665,132.5 19,132.5 C13.7588985,132.5 9.5,136.971843 9.5,142.5 C9.5,148.028157 13.7588985,152.5 19,152.5 L73.5,152.5 Z" id="Combined-Shape"></path>
            <path d="M112.5,222.5 L112.5,222.430416 L112.885055,222.33946 C115.570207,221.705181 117.5,219.297061 117.5,216.5 C117.5,213.648589 115.495372,211.207107 112.740414,210.628267 L112.407477,210.558314 L112.350328,210.222943 C111.496909,205.214757 107.137241,201.5 102,201.5 C101.569201,201.5 101.14173,201.525917 100.719098,201.577293 L100.423266,201.613255 L100.250892,201.370157 C98.0940412,198.32838 94.6924977,196.5 91,196.5 C89.084749,196.5 87.2379895,196.988695 85.5862258,197.910189 L85.1898233,198.131336 L84.9314957,197.758097 C82.2393433,193.868393 77.8197835,191.5 73,191.5 C66.4313842,191.5 60.7330135,195.905801 59.017278,202.147309 L58.9103428,202.536318 L58.5075202,202.514014 C58.3389761,202.504682 58.1697665,202.5 58,202.5 C52.7588985,202.5 48.5,206.971843 48.5,212.5 C48.5,218.028157 52.7588985,222.5 58,222.5 L112.5,222.5 Z" id="Combined-Shape" transform="translate(83.000000, 207.000000) scale(-1, 1) translate(-83.000000, -207.000000) "></path>
            <path d="M65,233 C65,250.594878 63.4743116,279.26365 73.8977892,299.26737 C84.3212668,319.27109 99.238291,324.666911 121.160004,325" id="Path-3"></path>
            <rect id="Rectangle-2" transform="translate(134.849242, 324.969238) rotate(45.000000) translate(-134.849242, -324.969238) " x="124.849242" y="314.969238" width="20" height="20"></rect>
        </g>
    </g>
</svg>