<?xml version="1.0" encoding="UTF-8" standalone="no"?>
<svg version="1.1" xmlns="http://www.w3.org/2000/svg" xmlns:xlink="http://www.w3.org/1999/xlink">
    <!-- Generator: Sketch 47.1 (45422) - http://www.bohemiancoding.com/sketch -->
    <title>hackgt</title>
    <desc>Created with Sketch.</desc>
    <defs>
        <linearGradient x1="0%" y1="0%" x2="138.635783%" y2="144.321429%" id="linearGradient-1">
            <stop stop-color="#8B54A2" offset="0%"></stop>
            <stop stop-color="#4AC8EF" offset="100%"></stop>
        </linearGradient>
    </defs>
    <g id="Page-1" stroke="none" stroke-width="1" fill="none" fill-rule="evenodd">
        <g id="hackgt" transform="translate(17.000000, 20.000000)" fill="url(#linearGradient-1)">
            <path d="M111,275.049583 L111,206.185045 L187.530744,162 L187.530744,54 L94,0 L0.469256391,54 L0.469256391,162 L77,206.185045 L77,226.270925 L-17,172 L-17,44 L93.8512517,-20 L204.702503,44 L204.702503,151.900834 L205,151.729075 L205,171.814955 L204.702503,171.986714 L204.702503,172 L128.469256,216.013286 L128.469256,324 L222,378 L315.530744,324 L315.530744,216 L239,171.814955 L239,151.900834 L332.702503,206 L332.702503,334 L221.851252,398 L111,334 L111,275.049583 Z M222,200 L286.951905,237.5 L286.951905,312.5 L222,350 L157.048095,312.5 L157.048095,237.5 L222,200 Z M94,31 L158.951905,68.5 L158.951905,143.5 L94,181 L29.0480947,143.5 L29.0480947,68.5 L94,31 Z" id="Combined-Shape"></path>
        </g>
    </g>
</svg>