<?xml version="1.0" encoding="UTF-8" standalone="no"?>
<svg version="1.1" xmlns="http://www.w3.org/2000/svg" xmlns:xlink="http://www.w3.org/1999/xlink" viewBox="0 0 500 475">
    <!-- Generator: Sketch 47.1 (45422) - http://www.bohemiancoding.com/sketch -->
    <title>HackGT</title>
    <defs>
        <filter id="logo-shadow" filterUnits="userSpaceOnUse">
            <feGaussianBlur in="SourceAlpha" stdDeviation ="16" />
            <feOffset dx="0" dy="0" result="offsetblur" />
            <feFlood flood-color="#e5fbff" />
            <feComposite in2="offsetblur" operator="in" />
            <feComponentTransfer>
                <feFuncA type="linear" slope="0.9" />
            </feComponentTransfer>
            <feMerge>
                <feMergeNode/>
                <feMergeNode in="SourceGraphic" />
            </feMerge>
        </filter>
    </defs>
    
    <g id="hackgt" transform="translate(90.000000, 50.000000)" fill="#e5fbff" filter="url('#logo-shadow')">
        <path d="M111,275.049583 L111,206.185045 L187.530744,162 L187.530744,54 L94,0 L0.469256391,54 L0.469256391,162 L77,206.185045 L77,226.270925 L-17,172 L-17,44 L93.8512517,-20 L204.702503,44 L204.702503,151.900834 L205,151.729075 L205,171.814955 L204.702503,171.986714 L204.702503,172 L128.469256,216.013286 L128.469256,324 L222,378 L315.530744,324 L315.530744,216 L239,171.814955 L239,151.900834 L332.702503,206 L332.702503,334 L221.851252,398 L111,334 L111,275.049583 Z M222,200 L286.951905,237.5 L286.951905,312.5 L222,350 L157.048095,312.5 L157.048095,237.5 L222,200 Z M94,31 L158.951905,68.5 L158.951905,143.5 L94,181 L29.0480947,143.5 L29.0480947,68.5 L94,31 Z" id="Combined-Shape"></path>
    </g>
</svg>