<svg id="Layer_1" data-name="Layer 1" xmlns="http://www.w3.org/2000/svg" xmlns:xlink="http://www.w3.org/1999/xlink" width="47.67" height="92.25" viewBox="0 0 47.67 92.25"><defs><style>.cls-1{fill:url(#HackGT);}</style><linearGradient id="HackGT" y1="46.13" x2="47.67" y2="46.13" gradientUnits="userSpaceOnUse"><stop offset="0" stop-color="#4ac8ef"/><stop offset="1" stop-color="#8b54a2"/></linearGradient></defs><title>Facebook</title><path class="cls-1" d="M30.94.25h7.67A6.11,6.11,0,0,1,43,1.82a5.67,5.67,0,0,1,2,4.09v9a6.44,6.44,0,0,1-2,4.4,6.51,6.51,0,0,1-4.46,2H33v6h8.7a5.62,5.62,0,0,1,5.7,7.31l-2.06,8.92A5.33,5.33,0,0,1,43.2,46.3a5.65,5.65,0,0,1-3.65,1H33V86.53a5.66,5.66,0,0,1-2,4.13,6.26,6.26,0,0,1-4.44,1.6h-9a5.22,5.22,0,0,1-4-1.6A5.33,5.33,0,0,1,12,86.53V47.25H5.6a5.12,5.12,0,0,1-4-1.54,5.07,5.07,0,0,1-1.58-4v-9a5.06,5.06,0,0,1,1.58-4,5.12,5.12,0,0,1,4-1.53H12V18.82c0-7.48,2.54-12.87,8-16.18A19,19,0,0,1,30.3,0C30.55,0,30.69.25,30.94.25ZM28.33,6q-.94.14-2.52.51a8.16,8.16,0,0,0-2.9,1.31A18.71,18.71,0,0,0,20.33,10a9.07,9.07,0,0,0-1.8,3.6A16.91,16.91,0,0,0,18,18.82V33.25H6v8H18v45h9v-45H39.55l2.15-8H27V18.35c0-.06-.21-.17-.18-.33s-.05-.31,0-.47a2.22,2.22,0,0,1,.48-1.17,4.43,4.43,0,0,1,.55-.56,5.63,5.63,0,0,1,.69-.51c.25-.16.57-.08,1-.15a9,9,0,0,1,1.26.09H39v-9H30.76L30.2,6A12.47,12.47,0,0,0,28.33,6Z"/></svg>