<svg id="Layer_1" data-name="Layer 1" xmlns="http://www.w3.org/2000/svg" xmlns:xlink="http://www.w3.org/1999/xlink" width="74.75" height="95.82" viewBox="0 0 74.75 95.82"><defs><style>.cls-1{fill:url(#linear-gradient);}</style><linearGradient id="linear-gradient" x1="-0.19" y1="57.68" x2="77.59" y2="30.9" gradientUnits="userSpaceOnUse"><stop offset="0" stop-color="#4ac8ef"/><stop offset="1" stop-color="#8b54a2"/></linearGradient></defs><title>Github</title><path class="cls-1" d="M4.4,48.9A2.22,2.22,0,0,1,2,47.1,39.59,39.59,0,0,1,.4,39.6,47.29,47.29,0,0,1,0,31.2a33.41,33.41,0,0,1,1.3-8.3,18,18,0,0,1,3.3-6.5A23.28,23.28,0,0,1,4,11.1a20.75,20.75,0,0,1,.7-5.5A13.28,13.28,0,0,1,6.6,1.1,2.08,2.08,0,0,1,8.8,0a32,32,0,0,1,4.6.6A18.84,18.84,0,0,1,17.6,2c1.3.6,2.4,1.2,3.3,1.7s1.9,1.2,3.2,2.1A55.49,55.49,0,0,1,41.6,4.2,28,28,0,0,1,46,5a18.09,18.09,0,0,0,3.5.5c.5,0,1.5-.6,3-1.6a15.67,15.67,0,0,1,3.1-1.8A27.54,27.54,0,0,1,64.9,0a2.64,2.64,0,0,1,1.9.7,2.5,2.5,0,0,1,.8,1.8,2.41,2.41,0,0,1-.7,1.8,2.5,2.5,0,0,1-1.8.8,19.56,19.56,0,0,0-7.4,1.6A11.9,11.9,0,0,0,55.5,8a11.8,11.8,0,0,1-5.4,2.5,15.33,15.33,0,0,1-5-.7c-1.7-.4-3-.6-3.6-.7A58.86,58.86,0,0,0,24.2,11a2.34,2.34,0,0,1-2.1-.4l-.7-.5c-1.6-1-2.7-1.7-3.6-2.2a22.3,22.3,0,0,0-3.4-1.6A17.74,17.74,0,0,0,10,5.2a14.6,14.6,0,0,0-1,5.5,14.86,14.86,0,0,0,.8,5.5,2.23,2.23,0,0,1-.7,2.9Q5.95,21.95,5.2,30.5a37.05,37.05,0,0,0,1.6,15,2.54,2.54,0,0,1-.2,1.9,2.17,2.17,0,0,1-1.5,1.3A1,1,0,0,1,4.4,48.9Zm14.7,44a1.09,1.09,0,0,1-.5-.1,2.47,2.47,0,0,1-1.6-1,2.56,2.56,0,0,1-.4-1.9,5.92,5.92,0,0,1,3.2-4c.6-.3.9-.6.9-.7.4-.9.6-3.2.4-7-.1-1.4-.2-2.5-.2-3.3-2.1.3-4,.5-5.9.6a11.7,11.7,0,0,1-5.5-1,9.5,9.5,0,0,1-4.3-3.9,19.78,19.78,0,0,1-1.5-3.2,19.83,19.83,0,0,0-1.4-2.9,3.29,3.29,0,0,1-.6-1.9,2.59,2.59,0,0,1,.9-1.7,2.31,2.31,0,0,1,1.9-.6,2.84,2.84,0,0,1,1.7.9,13.58,13.58,0,0,1,2.3,4.4,4.65,4.65,0,0,0,.3.9,6.89,6.89,0,0,1,.3.8c.1.3.2.6.4.7a5.67,5.67,0,0,0,4.6,2.4,30.08,30.08,0,0,0,9-1.1,2.51,2.51,0,0,1,3,2.8c-.1,1,0,2.9.1,5.8.2,4.7-.1,7.8-.8,9.4a7.21,7.21,0,0,1-3,3c-.4.3-.7.5-.7.5a2.24,2.24,0,0,1-.8,1.5A3.49,3.49,0,0,1,19.1,92.9Zm4.7-18.7-.6-.1A2.27,2.27,0,0,1,21.6,73a2.36,2.36,0,0,1-.3-2l.2-.7c.9-3.9,1.7-6.8,2.3-8.6a38.91,38.91,0,0,1-13.5-5.3A24.26,24.26,0,0,1,2,47.5a2.32,2.32,0,0,1-.1-2A2.17,2.17,0,0,1,3.2,44a2.32,2.32,0,0,1,2-.1,2.17,2.17,0,0,1,1.5,1.3,19,19,0,0,0,8,7.9,39.45,39.45,0,0,0,13.7,4.3A2.58,2.58,0,0,1,29.7,62c-.8.7-1.8,3.9-3.1,9.4l-.2.7a2.37,2.37,0,0,1-.9,1.5A2.93,2.93,0,0,1,23.8,74.2Zm4.6,21.6a2.66,2.66,0,0,1-2.2-1.1,2.36,2.36,0,0,1-.3-2A2.61,2.61,0,0,1,27,91.1c.6-.2,1.5-1.4,2.9-3.6.7-2.1,1.3-10.3,1.8-24.7a3,3,0,0,1,.8-1.8,2.41,2.41,0,0,1,1.8-.7A2.57,2.57,0,0,1,36.8,63c-.5,16.3-1.3,25.3-2.5,27.1-1.7,2.7-3.2,4.4-4.5,5.2A2.39,2.39,0,0,1,28.4,95.8Zm19.5,0a2.3,2.3,0,0,1-1.4-.4A21.12,21.12,0,0,1,42,90.2c-1.2-1.8-2-10.8-2.5-27.1a2.3,2.3,0,0,1,.2-1.4,2,2,0,0,1,.9-.9,2.84,2.84,0,0,1,1.3-.4,2.41,2.41,0,0,1,1.8.7,2.5,2.5,0,0,1,.8,1.8c.4,14.2,1.1,22.4,1.9,24.7a15.81,15.81,0,0,0,2.8,3.6,2.76,2.76,0,0,1,1.2,1.6,2.46,2.46,0,0,1-.4,2A2.66,2.66,0,0,1,47.9,95.8Zm8.4-3.4a2.51,2.51,0,0,1-2.2-1.2,3.06,3.06,0,0,0-1-.8,8.75,8.75,0,0,1-2.8-3A13.47,13.47,0,0,1,49.1,82c-.1-2.2,0-4.4.1-6.5a50.94,50.94,0,0,0,0-8,8.29,8.29,0,0,0-1.9-3.9,28,28,0,0,1-1.9-2.8,2.32,2.32,0,0,1,.2-2.4,2.27,2.27,0,0,1,2-1.2,29.07,29.07,0,0,0,12.7-3.8,20.81,20.81,0,0,0,8.2-8.7,3,3,0,0,1,1.4-1.3,2.77,2.77,0,0,1,2,.1A2.17,2.17,0,0,1,73.2,45a2.77,2.77,0,0,1-.1,2,25.24,25.24,0,0,1-8.3,9.5,31.86,31.86,0,0,1-12.5,5.2,12.38,12.38,0,0,1,2,5.1,61.58,61.58,0,0,1,.1,9c-.2,5-.1,8.1.5,9.3a1,1,0,0,0,.4.5,2.17,2.17,0,0,0,.7.6,7.41,7.41,0,0,1,2.4,2.2,2.36,2.36,0,0,1,.3,2A2.61,2.61,0,0,1,57.6,92c-.2.1-.5.2-.7.3S56.5,92.4,56.3,92.4Zm14.5-44a2,2,0,0,1-.7-.1,2.29,2.29,0,0,1-1.5-1.2,2.75,2.75,0,0,1-.2-2,36.88,36.88,0,0,0,.9-15.6c-.8-5.5-2.5-9.3-4.9-11.4a2.3,2.3,0,0,1-.7-2.8,16.34,16.34,0,0,0,.4-5.9,19.74,19.74,0,0,0-1.4-5.8,3.08,3.08,0,0,1,0-1.9A2.17,2.17,0,0,1,64.1.3a2.33,2.33,0,0,1,2,0,2.26,2.26,0,0,1,1.4,1.3A33.54,33.54,0,0,1,69,8a25.63,25.63,0,0,1-.2,7.3,20.9,20.9,0,0,1,4.5,8.8,39.61,39.61,0,0,1,1.4,11.4,41.68,41.68,0,0,1-1.4,10.9,5.94,5.94,0,0,1-.4.8,3.39,3.39,0,0,1-.6.6,2.51,2.51,0,0,1-.7.4A1.88,1.88,0,0,1,70.8,48.4Z" transform="translate(0.04 0.02)"/></svg>