<svg id="Layer_1" data-name="Layer 1" xmlns="http://www.w3.org/2000/svg" xmlns:xlink="http://www.w3.org/1999/xlink" width="94.23" height="94.92" viewBox="0 0 94.23 94.92"><defs><style>.cls-1{fill:url(#linear-gradient);}</style><linearGradient id="linear-gradient" x1="2.76" y1="63.27" x2="91.43" y2="32.74" gradientUnits="userSpaceOnUse"><stop offset="0" stop-color="#4ac8ef"/><stop offset="1" stop-color="#8b54a2"/></linearGradient></defs><title>Google</title><path class="cls-1" d="M66,32.92a26,26,0,0,0-8.51-6.41,22.33,22.33,0,0,0-8.7-1.74h-.19a22.29,22.29,0,0,0-16,6.64A22,22,0,0,0,25.72,47.9,19.78,19.78,0,0,0,33,63.79a23.21,23.21,0,0,0,15.57,6h.09a25,25,0,0,0,9.87-1.6,18.93,18.93,0,0,0,8.56-7.4H43.9v-24l49,.19a64,64,0,0,1,1.35,11.69q0,20.48-12.65,33.39T48.15,94.92a47.71,47.71,0,0,1-18.7-3.74,48.23,48.23,0,0,1-15.33-10.1A47.86,47.86,0,0,1,3.83,65.93,45.79,45.79,0,0,1,0,47.41,46,46,0,0,1,6.45,23.52,47.17,47.17,0,0,1,24,6.31,48,48,0,0,1,48.16,0,48.94,48.94,0,0,1,68,4.21,39,39,0,0,1,83.88,16.83ZM48.9,41.77v14H73.13a13.68,13.68,0,0,1-1.31,4.38A22.1,22.1,0,0,1,68.88,65a26,26,0,0,1-4.63,4.61,21.88,21.88,0,0,1-6.73,3.33,29.44,29.44,0,0,1-9,1.32,25.86,25.86,0,0,1-19-7.85A25.64,25.64,0,0,1,21.7,47.6a25.8,25.8,0,0,1,7.95-18.89,25.81,25.81,0,0,1,18.89-7.95,23.82,23.82,0,0,1,17.3,6.73L77.62,16.37Q65.65,5.14,48.54,5.14A42.36,42.36,0,0,0,17.86,17.54,40.41,40.41,0,0,0,5.14,47.6a40.3,40.3,0,0,0,12.72,30A42.36,42.36,0,0,0,48.54,90q18.8,0,30.21-11.55c7.61-7.7,11.41-17.55,11.41-29.71a38.6,38.6,0,0,0-.56-6.94Z"/></svg>