<svg version="1.1" width="32" height="32" viewBox="0.0 0.0 64.0 64.0" fill="none" stroke="none" stroke-linecap="square" stroke-miterlimit="10" xmlns:xlink="http://www.w3.org/1999/xlink" xmlns="http://www.w3.org/2000/svg"><clipPath id="p.0"><path d="m0 0l64.0 0l0 64.0l-64.0 0l0 -64.0z" clip-rule="nonzero"/></clipPath><g clip-path="url(#p.0)"><path fill="#000000" fill-opacity="0.0" d="m0 0l64.0 0l0 64.0l-64.0 0z" fill-rule="evenodd"/><defs><linearGradient id="p.1" gradientUnits="userSpaceOnUse" gradientTransform="matrix(9.513656920029494 0.0 0.0 9.513656920029494 0.0 0.0)" spreadMethod="pad" x1="-3.363585661012127" y1="3.3635735371749393" x2="3.3635735371749393" y2="10.09075698303638"><stop offset="0.0" stop-color="#4ac8ef"/><stop offset="1.0" stop-color="#8b54a2"/></linearGradient></defs><path fill="url(#p.1)" d="m0 10.66688l0 0c0 -5.891155 4.775725 -10.66688 10.66688 -10.66688l42.666237 0l0 0c2.829033 0 5.542198 1.1238288 7.5426254 3.1242568c2.0004272 2.000428 3.1242561 4.7135906 3.1242561 7.5426226l0 42.666237c0 5.8911552 -4.7757263 10.666882 -10.666882 10.666882l-42.666237 0c-5.891155 0 -10.66688 -4.7757263 -10.66688 -10.666882z" fill-rule="evenodd"/><path fill="#ffffff" d="m8.143177 15.756164l0 0c0 -0.61462784 0.49825478 -1.1128826 1.1128826 -1.1128826l45.900215 0c0.29515457 0 0.5782242 0.11724949 0.7869301 0.3259554c0.2087059 0.20870686 0.32595444 0.49177265 0.32595444 0.7869272l0 4.4514c0 0.61462784 -0.49825668 1.1128826 -1.1128845 1.1128826l-45.900215 0c-0.61462784 0 -1.1128826 -0.49825478 -1.1128826 -1.1128826z" fill-rule="evenodd"/><path fill="#ffffff" d="m8.143177 29.718105l0 0c0 -0.61462784 0.49825478 -1.1128826 1.1128826 -1.1128826l45.900215 0c0.29515457 0 0.5782242 0.11725044 0.7869301 0.32595634c0.2087059 0.2087059 0.32595444 0.4917717 0.32595444 0.78692627l0 4.4514008c0 0.61462784 -0.49825668 1.1128807 -1.1128845 1.1128807l-45.900215 0c-0.61462784 0 -1.1128826 -0.49825287 -1.1128826 -1.1128807z" fill-rule="evenodd"/><path fill="#ffffff" d="m8.143177 43.68005l0 0c0 -0.61463165 0.49825478 -1.1128845 1.1128826 -1.1128845l45.900215 0c0.29515457 0 0.5782242 0.117248535 0.7869301 0.32595444c0.2087059 0.2087059 0.32595444 0.4917755 0.32595444 0.7869301l0 4.451397c0 0.61462784 -0.49825668 1.1128845 -1.1128845 1.1128845l-45.900215 0c-0.61462784 0 -1.1128826 -0.49825668 -1.1128826 -1.1128845z" fill-rule="evenodd"/></g></svg>