<svg id="Layer_1" data-name="Layer 1" xmlns="http://www.w3.org/2000/svg" xmlns:xlink="http://www.w3.org/1999/xlink" width="94.83" height="94.83" viewBox="0 0 94.83 94.83"><defs><style>.cls-1{fill:url(#linear-gradient);}</style><linearGradient id="linear-gradient" x1="-2.3" y1="64.53" x2="97.12" y2="30.3" gradientUnits="userSpaceOnUse"><stop offset="0" stop-color="#4ac8ef"/><stop offset="1" stop-color="#8b54a2"/></linearGradient></defs><title>Instagram</title><path class="cls-1" d="M47.41,0q12,0,19.54.28a35.9,35.9,0,0,1,11.5,2.24A23.69,23.69,0,0,1,92.3,16.37a35.92,35.92,0,0,1,2.24,11.5q.28,7.57.28,19.54T94.55,67a35.93,35.93,0,0,1-2.24,11.5A23.7,23.7,0,0,1,78.46,92.3,36,36,0,0,1,67,94.55q-7.57.28-19.54.28t-19.54-.28a36,36,0,0,1-11.5-2.24A23.69,23.69,0,0,1,2.52,78.46,35.93,35.93,0,0,1,.28,67Q0,59.38,0,47.41T.28,27.87a35.92,35.92,0,0,1,2.24-11.5A23.69,23.69,0,0,1,16.37,2.53,35.9,35.9,0,0,1,27.87.28Q35.44,0,47.41,0Zm0,6.17q-12.44,0-20.29.28a30.09,30.09,0,0,0-9.35,1.78,17.08,17.08,0,0,0-9.54,9.54,30,30,0,0,0-1.78,9.35Q6.17,35,6.17,47.41t.28,20.29a30,30,0,0,0,1.78,9.35,17.07,17.07,0,0,0,9.54,9.54,30,30,0,0,0,9.35,1.78q7.86.28,20.29.28t20.29-.28a30,30,0,0,0,9.35-1.78,17.08,17.08,0,0,0,9.54-9.54,30.08,30.08,0,0,0,1.78-9.35q.28-7.85.28-20.29t-.28-20.29a30.08,30.08,0,0,0-1.78-9.35,17.08,17.08,0,0,0-9.54-9.54,30.1,30.1,0,0,0-9.35-1.78Q59.85,6.17,47.41,6.17Zm-17.21,24A23.44,23.44,0,0,1,47.41,23.1a23.44,23.44,0,0,1,17.21,7.11,23.44,23.44,0,0,1,7.11,17.21,23.44,23.44,0,0,1-7.11,17.21,23.43,23.43,0,0,1-17.21,7.11,23.43,23.43,0,0,1-17.21-7.11A23.43,23.43,0,0,1,23.1,47.41,23.44,23.44,0,0,1,30.21,30.21ZM34,60.83A18.29,18.29,0,0,0,47.41,66.4a19,19,0,0,0,19-19,19,19,0,0,0-19-19,19,19,0,0,0-19,19A18.29,18.29,0,0,0,34,60.83ZM76.73,18.1a5.57,5.57,0,0,1,1.73,4.07,5.34,5.34,0,0,1-1.68,4,5.68,5.68,0,0,1-4.11,1.64,5.59,5.59,0,0,1-5.61-5.61A5.68,5.68,0,0,1,68.69,18a5.33,5.33,0,0,1,4-1.68A5.57,5.57,0,0,1,76.73,18.1Z"/></svg>