<svg id="Layer_1" data-name="Layer 1" xmlns="http://www.w3.org/2000/svg" xmlns:xlink="http://www.w3.org/1999/xlink" width="96.18" height="91.56" viewBox="0 0 96.18 91.56"><defs><style>.cls-1{fill:url(#linear-gradient);}</style><linearGradient id="linear-gradient" x1="-6.92" y1="66.2" x2="90.68" y2="32.59" gradientUnits="userSpaceOnUse"><stop offset="0" stop-color="#4ac8ef"/><stop offset="1" stop-color="#8b54a2"/></linearGradient></defs><title>LinkedIn</title><path class="cls-1" d="M13.37,25.54h-.09a13.3,13.3,0,0,1-9.54-3.75A12.23,12.23,0,0,1,0,12.64,11.85,11.85,0,0,1,3.83,3.57,13.76,13.76,0,0,1,13.56,0,13.26,13.26,0,0,1,23,3.5a12.11,12.11,0,0,1,3.83,9,12.37,12.37,0,0,1-3.79,9.27A13.59,13.59,0,0,1,13.37,25.54Zm9.73,66H3.65a2.36,2.36,0,0,1-1.75-.61,2.06,2.06,0,0,1-.72-1.64V30.75a2.07,2.07,0,0,1,.72-1.62,2.23,2.23,0,0,1,1.75-.59H23.1a1.84,1.84,0,0,1,1.56.59,1.92,1.92,0,0,1,.53,1.62V89.29C25.18,90.91,24.78,91.54,23.1,91.54ZM13.56,4.94A9.05,9.05,0,0,0,7.34,7,7.06,7.06,0,0,0,5,12.61a7.44,7.44,0,0,0,2.34,5.65,8.58,8.58,0,0,0,6,2.28h.09a9.66,9.66,0,0,0,4.44-1.11,7.58,7.58,0,0,0,3-2.78,7.49,7.49,0,0,0,1.08-4,7.61,7.61,0,0,0-2.34-5.58A8.41,8.41,0,0,0,13.56,4.94ZM6.18,86.54h14v-53h-14Zm67.7,5A2.64,2.64,0,0,1,72,90.93a2.17,2.17,0,0,1-.83-1.64V58a19.82,19.82,0,0,0-.52-5.24,9.69,9.69,0,0,0-1.36-3.18,5.7,5.7,0,0,0-2-1.64,5.61,5.61,0,0,0-1.81-.65c-.41,0-.92,0-1.54,0a7.36,7.36,0,0,0-4,1.12,8,8,0,0,0-2.48,2.2,13.52,13.52,0,0,0-1.17,2.2,13.25,13.25,0,0,0-.15,1.54,19.29,19.29,0,0,0,0,2.29V89.29a2.34,2.34,0,0,1-.92,1.64,2.73,2.73,0,0,1-2,.61H33.85a2.38,2.38,0,0,1-.94,0A2.82,2.82,0,0,1,32,91a2.3,2.3,0,0,1-.77-1.71v-8.6c0-2.49,0-5.39,0-8.7s0-6.67,0-10.1V42.16c0-2.81.15-5.24.12-7.29s0-3.4,0-4a2,2,0,0,1,.7-1.67,2.31,2.31,0,0,1,1.82-.64H53.3a2.83,2.83,0,0,1,1,0,2.2,2.2,0,0,1,.79.44c.22.22.56.45.69.76a2.72,2.72,0,0,1,.36,1v1.4a21.37,21.37,0,0,1,14.88-5.33c7.79,0,14,2.56,18.4,7.67s6.72,12.19,6.72,21.23V89.29c0,.31-.27.62-.4.94a2.66,2.66,0,0,1-.62.79,2.43,2.43,0,0,1-.85.42,2.66,2.66,0,0,1-1,.1Zm17.3-5V55.72c0-7.61-1.92-13.48-5.38-17.63S77.34,31.87,71,31.87a17.28,17.28,0,0,0-15.2,8,2.18,2.18,0,0,1-2.38,1.7h-.19a2.07,2.07,0,0,1-2-1.23c-.37-.62-1-1.2,0-1.89V33.54H36.38c.12,7,.12,24,0,53h14.8v-30a16,16,0,0,1,.69-5.71,15.39,15.39,0,0,1,1.51-2.95,14.16,14.16,0,0,1,2.07-2.43A11.45,11.45,0,0,1,58,43.7a14.57,14.57,0,0,1,2.89-1.12A11.78,11.78,0,0,1,64,42.16,10.89,10.89,0,0,1,74.8,49.4,22.5,22.5,0,0,1,76.18,58V86.54Z"/></svg>