<svg id="Layer_1" data-name="Layer 1" xmlns="http://www.w3.org/2000/svg" xmlns:xlink="http://www.w3.org/1999/xlink" width="95.8" height="77.99" viewBox="0 0 95.8 77.99"><defs><style>.cls-1{fill:url(#linear-gradient);}</style><linearGradient id="linear-gradient" x1="-4.86" y1="51.37" x2="97.05" y2="16.28" gradientUnits="userSpaceOnUse"><stop offset="0" stop-color="#4ac8ef"/><stop offset="1" stop-color="#8b54a2"/></linearGradient></defs><title>Twitter</title><path class="cls-1" d="M67.83.28a21.92,21.92,0,0,1,3.69.89A23.4,23.4,0,0,1,75,2.67a23.89,23.89,0,0,1,3.18,2A24.43,24.43,0,0,0,84.48,2a7.67,7.67,0,0,1,.75-.33A7,7,0,0,1,86,1.4a6.66,6.66,0,0,1,.75-.14,6.18,6.18,0,0,1,.75,0,6.08,6.08,0,0,1,3.83,1.31,5.7,5.7,0,0,1,1.5,1.82,5.75,5.75,0,0,1,.65,2.2,7.59,7.59,0,0,1-.19,2.34,5.63,5.63,0,0,1,2.52,4.86,6.79,6.79,0,0,1-.28,2,4.5,4.5,0,0,1-.94,1.68,38.38,38.38,0,0,1-7.29,7.95,51.83,51.83,0,0,1-2.57,15.48,53.23,53.23,0,0,1-7.2,14.31A57.43,57.43,0,0,1,66.34,67,49.38,49.38,0,0,1,51.1,75,58.49,58.49,0,0,1,32.39,78,54.67,54.67,0,0,1,2.84,69.58a5.46,5.46,0,0,1-2.48-3,6,6,0,0,1,0-4,6.13,6.13,0,0,1,2.2-2.9A5.81,5.81,0,0,1,6,58.54l.65.09a29.41,29.41,0,0,0,3.46.19,28.11,28.11,0,0,0,3.23-.19,27.71,27.71,0,0,0,3.23-.56A22.57,22.57,0,0,1,9.67,47.88a8.22,8.22,0,0,1-.23-1.54,5.14,5.14,0,0,1,.29-1.54,21.61,21.61,0,0,1-6-15.43v-.19a5.94,5.94,0,0,1,1.35-4A22,22,0,0,1,6.71,5.89a5.54,5.54,0,0,1,4.66-2.81L11.83,3a5.67,5.67,0,0,1,4.58,2.15A41.88,41.88,0,0,0,41.09,19.64a21.81,21.81,0,0,1,7.67-14A22.59,22.59,0,0,1,64,0,25.75,25.75,0,0,1,67.83.28Zm-16,10.57a15.75,15.75,0,0,0-5,11.78,15.71,15.71,0,0,0,.47,3.83,49.84,49.84,0,0,1-19.78-5.14A47.8,47.8,0,0,1,11.82,9a16.52,16.52,0,0,0-1.73,4,16.06,16.06,0,0,0-.61,4.4,15.71,15.71,0,0,0,1,5.47,16.94,16.94,0,0,0,2.67,4.77,17.21,17.21,0,0,0,4.17,3.6,15,15,0,0,1-7.61-2.06v.19A15.74,15.74,0,0,0,13.47,40a16.51,16.51,0,0,0,9.74,5.71,15.6,15.6,0,0,1-4.53.65c-.37,0-.77,0-1.14,0s-.74-.08-1.08-.14L15.38,46a16.54,16.54,0,0,0,6.08,8.28,17,17,0,0,0,10,3.32,34,34,0,0,1-21.32,7.2Q9,64.81,8,64.71l-2-.19A49.08,49.08,0,0,0,32.39,72a52.72,52.72,0,0,0,14.54-2,44.22,44.22,0,0,0,12.16-5.42,51.38,51.38,0,0,0,9.54-8,44.78,44.78,0,0,0,7-9.91,52.18,52.18,0,0,0,4.21-10.94A44.37,44.37,0,0,0,81.3,24.59q0-1-.09-2.15,1.68-1.21,3.23-2.57a31.74,31.74,0,0,0,2.9-2.9,30.7,30.7,0,0,0,2.48-3.23A33.16,33.16,0,0,1,80,16.37,16,16,0,0,0,87.47,7.2a35,35,0,0,1-10.85,4,17.73,17.73,0,0,0-24.78-.37Z" transform="translate(0)"/></svg>